<svg width="50" height="70" viewBox="0 0 50 70" fill="none" xmlns="http://www.w3.org/2000/svg">
<path d="M11.1606 8.5H2.98644C1.56287 8.5 0.595065 9.94516 1.13709 11.2615L9.99003 32.7615C10.2986 33.5109 11.0289 34 11.8394 34H20.0136C21.4371 34 22.4049 32.5548 21.8629 31.2385L13.01 9.7385C12.7014 8.9891 11.9711 8.5 11.1606 8.5Z" fill="#00A7F8"/>
<path d="M18.5913 44H28.8385C30.307 44 31.2747 45.5298 30.6457 46.8568L20.2159 68.8568C19.8849 69.5549 19.1814 70 18.4087 70H8.16153C6.69302 70 5.72526 68.4702 6.35433 67.1432L16.7841 45.1432C17.1151 44.4451 17.8186 44 18.5913 44Z" fill="#00A7F8"/>
<path d="M32.4587 30H24.8413C23.2233 30 22.275 31.8214 23.2028 33.1469L30.9028 44.1469C31.2771 44.6816 31.8887 45 32.5413 45H40.1587C41.7767 45 42.725 43.1786 41.7972 41.8531L34.0972 30.8531C33.7229 30.3184 33.1113 30 32.4587 30Z" fill="#00A7F8"/>
<path d="M45.0982 20.2231L48.2866 12.6964C48.8419 11.3856 47.8887 9.93079 46.4652 9.91643L23.2151 9.6818C22.4047 9.67362 21.6694 10.1553 21.3533 10.9016L18.1649 18.4283C17.6096 19.7391 18.5628 21.1939 19.9863 21.2083L43.2364 21.4429C44.0468 21.4511 44.7821 20.9694 45.0982 20.2231Z" fill="#00A7F8"/>
</svg>
